PathFileType	4	(X/Y/Z)	Patient4_TMGait_0pt5_01_left_32.trc.trc
DataRate	CameraRate	NumFrames	NumMarkers	Units	OrigDataRate	OrigDataStartFrame	OrigNumFrames
75.268817204301	75.268817204301	4	33	mm	75.268817204301	36	       141
Frame#	Time	L.ASIS			Sacral			L.Shoulder			Chest			R.Shoulder			Neck			R.ASIS			R.Thigh.Superior			R.Thigh.Lateral			R.Thigh.Inferior			R.Patella			L.Thigh.Superior			L.Thigh.Lateral			L.Thigh.Inferior			L.Patella			L.Shank.Superior			L.Shank.Lateral			L.Shank.Inferior			R.Shank.Superior			R.Shank.Lateral			R.Shank.Inferior			R.Heel			R.Midfoot.Superior			R.Midfoot.Lateral			R.Toe			L.Heel			L.Midfoot.Lateral			L.Midfoot.Superior			L.Toe			L.Elbow			L.Wrist			R.Elbow			R.Wrist			
		X1	Y1	Z1	X2	Y2	Z2	X3	Y3	Z3	X4	Y4	Z4	X5	Y5	Z5	X6	Y6	Z6	X7	Y7	Z7	X8	Y8	Z8	X9	Y9	Z9	X10	Y10	Z10	X11	Y11	Z11	X12	Y12	Z12	X13	Y13	Z13	X14	Y14	Z14	X15	Y15	Z15	X16	Y16	Z16	X17	Y17	Z17	X18	Y18	Z18	X19	Y19	Z19	X20	Y20	Z20	X21	Y21	Z21	X22	Y22	Z22	X23	Y23	Z23	X24	Y24	Z24	X25	Y25	Z25	X26	Y26	Z26	X27	Y27	Z27	X28	Y28	Z28	X29	Y29	Z29	X30	Y30	Z30	X31	Y31	Z31	X32	Y32	Z32	X33	Y33	Z33	

36	43.145000000000	838.799176541899	947.995907660570	323.148759981215	630.980920519473	1003.528772791829	486.865121325160	801.041316558303	1420.308623837226	287.666699894946	913.597364224196	1351.833901535957	442.810921038064	843.888460767008	1434.871427647563	619.668815129592	816.834669347315	1486.175808483521	434.879010234643	857.525933150229	934.146006770336	598.100172015505	870.244068656582	720.830306011858	575.224641095812	774.866279128115	623.203909541538	639.436018502832	842.693301264628	556.933749934291	561.812449792156	827.445692503317	458.200573039201	574.801129172139	913.478299475751	762.938192152439	364.589912645379	852.615658434459	636.032107195571	295.260146984959	947.631206680113	572.490825974703	362.162338892615	959.377758161539	499.406881240582	369.113665114424	936.402811019509	423.967981747860	358.451790978458	855.441117960177	305.653919268680	301.760690356076	911.473313314126	196.832516620674	372.904273390222	767.898037692801	383.851321191769	583.407880876159	665.164925208099	313.406079751289	647.832175777574	675.252603331679	206.672698789550	592.847532387318	497.414235248073	75.838390771225	568.091803873731	673.342835727166	102.060500370909	609.790592874040	575.361540274268	55.871251847687	644.891234614158	780.258023711956	35.753884313787	645.488049835941	789.156329580336	37.391745379980	408.534655390702	864.564694443229	35.479884448265	328.657685804195	946.092194933985	97.914578677718	357.107839980610	1075.211719162889	49.326013298862	330.774139024060	714.119077807459	1072.765719134920	184.078511146924	794.664991676093	823.171352038722	168.108608540691	883.241794664504	1104.616014609778	761.787849593096	1111.396966720796	1020.896435643312	686.735559150250	
37	43.158285714286	838.985918428023	948.560612006505	320.483403961632	630.262123544441	1003.947418767003	483.249080326569	800.417540117329	1420.180684749436	283.265895288729	912.523175429102	1352.751051963063	439.160857534693	841.883422572507	1436.437365616210	615.384131076061	815.387659203816	1486.725781877643	430.223567675133	856.353446427936	934.765333403364	595.247260952663	873.625029681602	722.500758801292	572.673750352249	780.729121786792	622.881508706862	636.906647764060	850.683960707741	557.641645916362	559.601731491474	836.755390686596	456.839902052396	573.982053308501	912.578119942175	762.286875208581	360.994037415922	850.131720357616	635.939486107700	292.639386982682	944.582768434194	571.687854076226	359.544513486155	955.705489961475	498.740682008321	366.886749869908	932.264944847271	423.289422541470	356.514875676530	850.494456182949	305.309808121869	300.325243019444	905.654023959886	196.483656199287	372.055791144757	774.258175801157	383.855534416091	582.035973058881	668.560081760006	317.335135844067	645.723649702928	675.923872239296	209.971945014558	591.630648223106	494.141272500122	85.713911581701	566.020616688343	670.511004009529	104.725552527289	609.115579614592	570.544980887680	62.746082188761	643.315625491875	773.725364226128	35.082200051528	645.504734878230	782.494631453449	37.357594670095	408.368251822441	857.892887312777	35.352192877689	328.421936204362	939.418700796703	97.865257631779	356.842111579093	1068.575521474071	49.384052329050	330.692847341586	716.151572763561	1071.805317194125	179.830149048412	801.026192216422	823.649646244311	163.622555074471	873.399413326783	1105.999843465947	759.549179391150	1097.941552394561	1011.067708327257	686.310565014740	
38	43.171571428571	838.933119655281	949.136285515335	317.992090150969	629.358170623397	1004.407233737447	479.786828330621	800.001842935927	1420.047164274256	278.930738908573	911.447824849723	1353.638953581794	435.693808642484	839.710836572440	1437.983019484753	611.202958579244	813.994332342220	1487.276755213158	425.636722646449	854.994915177503	935.367354041393	592.504689673118	877.392353418695	724.623793187254	570.232174335395	787.367989760309	622.828471191503	634.562072275246	859.615130301811	558.831403770001	557.641516124275	847.082775357694	456.021228246069	573.302577543049	911.166888388866	761.482687210662	357.129008181038	846.925891496006	635.834891202597	289.927459674610	940.921354834191	570.855238176366	356.639423799143	951.432846159057	498.085866171357	364.281483119631	927.560237627434	422.651811934073	354.275781937840	844.948852815265	304.914618308261	298.845788138572	899.575291986183	196.160823304182	371.029343622041	781.732232693121	384.301188152984	580.722324765476	673.031029270309	321.915365533518	643.425056135451	677.559631269602	214.019954174175	590.171872525939	491.901184131324	96.974832087858	563.202859347101	668.424667821255	108.190347957639	608.156199842173	566.369022547289	70.885130595228	641.221135426575	767.453702851815	34.721868826284	645.491855029010	775.799973020852	37.314301574097	408.209674842812	851.175293159878	35.194521562125	328.179407527794	932.720386001630	97.779810085215	356.514418637539	1061.901702887161	49.373752906729	330.592349608931	718.198277451177	1070.952088017727	175.531784884420	807.273894152930	824.251078723416	159.225423354926	863.001704261493	1107.464198472428	757.223560486554	1083.412328405600	1001.166460231165	686.257235550557	
39	43.184857142857	838.624403666775	949.733741623466	315.656236128240	628.274272794680	1004.881049165102	476.511613389175	799.768529672190	1419.885539768848	274.695209442135	910.361951986890	1354.471102757442	432.432532282913	837.387254503964	1439.491031496838	607.150425927303	812.660520526974	1487.812857262352	421.146046626905	853.469172298395	935.935909331140	589.891711472976	881.425815981020	727.206584103752	567.874976664681	794.652187712691	623.118366242098	632.425011265917	869.298143737967	560.570104169516	555.954624057076	858.264289225385	455.853764848407	572.760083200610	909.293491766800	760.599371048166	353.076407709038	843.110952865383	635.751225395716	287.172106578536	936.746488204169	570.029233600344	353.511592452350	946.641059966364	497.460844046460	361.377290157042	922.374638861473	422.069207360214	351.808003143372	838.908309568977	304.499756801341	297.329626454460	893.282134756491	195.874340078276	369.864857114246	790.217208202617	385.234980750877	579.469454947397	678.537973317938	327.090990336344	640.942053863407	680.185562344842	218.776764459767	588.451133892283	490.846423195613	109.352612942357	559.623041652917	667.189026767941	112.483985603674	606.873674365108	563.024433090529	80.151762408130	638.583794203054	761.687125072837	34.819399372189	645.427902132466	769.086462962289	37.269516780393	408.058356305454	844.427536151041	35.021631419329	327.933529332947	926.007619737988	97.677040029032	356.132470327481	1055.201884328674	49.319150985354	330.470803962390	720.343390239975	1070.169773330564	171.165150745182	813.409631351303	824.905437030953	154.928775357017	852.082871491504	1109.009723034482	754.817910040238	1067.818769749408	991.271836892165	686.563232834906	
